<mxfile host="app.diagrams.net" modified="2021-11-30T12:44:27.812Z" agent="5.0 (X11; Linux x86_64) AppleWebKit/537.36 (KHTML, like Gecko) Chrome/96.0.4664.45 Safari/537.36" etag="LT21QZAxHfhjaMGKyOSm" version="15.8.6" type="github">
  <diagram id="SucnVY5wIaDdFFjGa37l" name="Page-1">
    <mxGraphModel dx="663" dy="366" grid="1" gridSize="10" guides="1" tooltips="1" connect="1" arrows="1" fold="1" page="1" pageScale="1" pageWidth="850" pageHeight="1100" math="0" shadow="0">
      <root>
        <mxCell id="0" />
        <mxCell id="1" parent="0" />
        <mxCell id="wvUi6z0mtOsUfCRgHJHi-1" value="Peer A" style="rounded=1;whiteSpace=wrap;html=1;" vertex="1" parent="1">
          <mxGeometry x="160" y="40" width="120" height="60" as="geometry" />
        </mxCell>
        <mxCell id="wvUi6z0mtOsUfCRgHJHi-2" value="Peer B" style="rounded=1;whiteSpace=wrap;html=1;" vertex="1" parent="1">
          <mxGeometry x="580" y="40" width="120" height="60" as="geometry" />
        </mxCell>
        <mxCell id="wvUi6z0mtOsUfCRgHJHi-3" value="" style="endArrow=none;html=1;rounded=0;entryX=0.5;entryY=1;entryDx=0;entryDy=0;" edge="1" parent="1" target="wvUi6z0mtOsUfCRgHJHi-1">
          <mxGeometry width="50" height="50" relative="1" as="geometry">
            <mxPoint x="220" y="520" as="sourcePoint" />
            <mxPoint x="450" y="370" as="targetPoint" />
          </mxGeometry>
        </mxCell>
        <mxCell id="wvUi6z0mtOsUfCRgHJHi-4" value="" style="endArrow=none;html=1;rounded=0;entryX=0.5;entryY=1;entryDx=0;entryDy=0;" edge="1" parent="1" target="wvUi6z0mtOsUfCRgHJHi-2">
          <mxGeometry width="50" height="50" relative="1" as="geometry">
            <mxPoint x="639.5" y="520" as="sourcePoint" />
            <mxPoint x="640" y="190" as="targetPoint" />
          </mxGeometry>
        </mxCell>
        <mxCell id="wvUi6z0mtOsUfCRgHJHi-5" value="" style="endArrow=classic;html=1;rounded=0;" edge="1" parent="1">
          <mxGeometry width="50" height="50" relative="1" as="geometry">
            <mxPoint x="220" y="200" as="sourcePoint" />
            <mxPoint x="640" y="240" as="targetPoint" />
          </mxGeometry>
        </mxCell>
        <mxCell id="wvUi6z0mtOsUfCRgHJHi-6" value="Send Sequence Number and ID" style="text;html=1;strokeColor=none;fillColor=none;align=center;verticalAlign=middle;whiteSpace=wrap;rounded=0;" vertex="1" parent="1">
          <mxGeometry x="314.5" y="180" width="222" height="30" as="geometry" />
        </mxCell>
        <mxCell id="wvUi6z0mtOsUfCRgHJHi-10" value="" style="endArrow=classic;html=1;rounded=0;" edge="1" parent="1">
          <mxGeometry width="50" height="50" relative="1" as="geometry">
            <mxPoint x="220" y="360" as="sourcePoint" />
            <mxPoint x="640" y="400" as="targetPoint" />
          </mxGeometry>
        </mxCell>
        <mxCell id="wvUi6z0mtOsUfCRgHJHi-11" value="Send Sequence Number and ID &amp;amp; Acknowledge" style="text;html=1;strokeColor=none;fillColor=none;align=center;verticalAlign=middle;whiteSpace=wrap;rounded=0;" vertex="1" parent="1">
          <mxGeometry x="319" y="340" width="222" height="30" as="geometry" />
        </mxCell>
        <mxCell id="wvUi6z0mtOsUfCRgHJHi-12" value="" style="endArrow=classic;html=1;rounded=0;" edge="1" parent="1">
          <mxGeometry width="50" height="50" relative="1" as="geometry">
            <mxPoint x="640" y="280" as="sourcePoint" />
            <mxPoint x="220" y="320" as="targetPoint" />
          </mxGeometry>
        </mxCell>
        <mxCell id="wvUi6z0mtOsUfCRgHJHi-13" value="Send Sequence Number and ID &amp;amp; Acknowledge" style="text;html=1;strokeColor=none;fillColor=none;align=center;verticalAlign=middle;whiteSpace=wrap;rounded=0;" vertex="1" parent="1">
          <mxGeometry x="309" y="260" width="232" height="30" as="geometry" />
        </mxCell>
        <mxCell id="wvUi6z0mtOsUfCRgHJHi-22" value="A Starts Link" style="text;html=1;strokeColor=none;fillColor=none;align=center;verticalAlign=middle;whiteSpace=wrap;rounded=0;" vertex="1" parent="1">
          <mxGeometry x="120" y="370" width="100" height="30" as="geometry" />
        </mxCell>
        <mxCell id="wvUi6z0mtOsUfCRgHJHi-23" value="B Starts Link" style="text;html=1;strokeColor=none;fillColor=none;align=center;verticalAlign=middle;whiteSpace=wrap;rounded=0;" vertex="1" parent="1">
          <mxGeometry x="640" y="410" width="100" height="30" as="geometry" />
        </mxCell>
        <mxCell id="wvUi6z0mtOsUfCRgHJHi-24" value="" style="endArrow=classic;html=1;rounded=0;" edge="1" parent="1" target="wvUi6z0mtOsUfCRgHJHi-26">
          <mxGeometry width="50" height="50" relative="1" as="geometry">
            <mxPoint x="640" y="140" as="sourcePoint" />
            <mxPoint x="250" y="180" as="targetPoint" />
          </mxGeometry>
        </mxCell>
        <mxCell id="wvUi6z0mtOsUfCRgHJHi-25" value="Send Sequence Number and ID" style="text;html=1;strokeColor=none;fillColor=none;align=center;verticalAlign=middle;whiteSpace=wrap;rounded=0;" vertex="1" parent="1">
          <mxGeometry x="309" y="120" width="232" height="30" as="geometry" />
        </mxCell>
        <mxCell id="wvUi6z0mtOsUfCRgHJHi-26" value="" style="shape=umlDestroy;whiteSpace=wrap;html=1;strokeWidth=3;" vertex="1" parent="1">
          <mxGeometry x="235" y="165" width="30" height="30" as="geometry" />
        </mxCell>
      </root>
    </mxGraphModel>
  </diagram>
</mxfile>
